<svg id="svg" version="1.1" xmlns="http://www.w3.org/2000/svg" xmlns:xlink="http://www.w3.org/1999/xlink" width="400" height="400" viewBox="0, 0, 400,400"><g id="svgg"><path id="path0" d="M144.361 58.764 C 118.264 59.224,119.226 59.170,117.764 60.249 C 117.080 60.754,115.611 62.518,115.196 63.333 C 115.036 63.648,103.614 98.662,89.815 141.143 C 76.015 183.624,64.475 218.970,64.170 219.690 C 62.202 224.339,61.854 231.005,63.483 232.854 C 64.098 233.552,66.030 234.651,67.238 234.990 C 68.445 235.329,71.948 235.338,87.333 235.043 C 92.467 234.944,97.342 234.862,98.167 234.860 L 99.667 234.857 99.560 235.381 C 99.501 235.669,94.339 253.990,88.087 276.095 C 76.028 318.737,76.362 317.431,77.016 319.354 C 78.371 323.344,85.439 324.900,88.595 321.905 C 89.954 320.614,189.782 176.194,190.741 174.130 C 192.254 170.875,191.056 167.526,187.890 166.162 C 187.021 165.788,185.153 165.789,163.238 166.172 C 155.957 166.300,149.971 166.384,149.935 166.359 C 149.898 166.334,157.565 143.957,166.972 116.633 C 183.200 69.497,184.548 65.447,184.564 63.784 C 184.584 61.867,183.088 59.594,181.242 58.735 C 180.025 58.168,178.039 58.170,144.361 58.764 M197.277 60.744 C 194.334 61.361,193.881 62.159,190.942 71.905 C 190.278 74.105,186.208 85.805,181.897 97.905 C 172.823 123.373,173.707 120.768,173.682 122.107 C 173.591 126.810,178.064 129.049,186.261 128.406 C 190.248 128.094,308.003 128.637,310.370 128.979 C 314.863 129.628,319.656 128.598,321.457 126.596 L 322.335 125.619 332.055 97.333 C 342.974 65.560,342.394 67.571,341.292 65.328 C 340.036 62.771,338.356 61.661,335.757 61.671 C 303.960 61.799,218.831 61.368,213.143 61.050 C 207.096 60.713,198.240 60.542,197.277 60.744 M207.333 166.977 C 206.600 167.130,205.768 167.423,205.484 167.628 C 205.200 167.833,204.919 168.000,204.859 168.000 C 204.652 168.000,203.521 169.370,203.048 170.197 C 202.786 170.653,201.961 171.910,201.214 172.990 C 200.467 174.069,199.091 176.281,198.155 177.905 C 197.219 179.529,190.055 190.813,182.234 202.981 C 167.140 226.466,167.478 225.886,167.670 227.998 C 167.912 230.667,170.508 233.054,173.883 233.710 C 174.577 233.844,258.154 234.321,277.438 234.301 C 282.974 234.295,284.155 233.913,285.436 231.714 C 286.127 230.528,305.676 176.982,305.820 175.883 C 306.187 173.068,303.683 169.577,300.510 168.482 L 299.020 167.968 285.463 167.979 C 268.613 167.994,245.619 167.690,243.333 167.423 C 242.377 167.311,236.187 167.190,229.333 167.150 C 222.576 167.110,216.148 166.987,215.048 166.878 C 212.270 166.602,208.917 166.645,207.333 166.977 M142.049 274.240 L 134.288 274.290 133.462 275.342 C 133.008 275.921,132.043 277.507,131.318 278.867 C 130.117 281.120,99.663 328.821,97.895 331.218 C 95.563 334.381,96.711 338.646,100.252 339.971 C 101.329 340.374,108.547 340.432,213.619 340.877 L 242.190 340.999 244.286 340.489 C 248.742 339.406,249.394 338.851,250.580 335.143 C 250.916 334.095,255.332 321.967,260.396 308.190 L 269.602 283.143 269.608 281.524 C 269.616 279.515,269.271 278.782,267.505 277.050 C 265.855 275.432,262.549 274.178,260.976 274.572 C 260.578 274.672,190.039 274.444,157.143 274.237 C 153.110 274.211,146.317 274.213,142.049 274.240 " stroke="none" fill="#045c44" fill-rule="evenodd"></path><path id="path1" d="" stroke="none" fill="#085c44" fill-rule="evenodd"></path><path id="path2" d="" stroke="none" fill="#085c44" fill-rule="evenodd"></path><path id="path3" d="" stroke="none" fill="#085c44" fill-rule="evenodd"></path><path id="path4" d="" stroke="none" fill="#085c44" fill-rule="evenodd"></path></g></svg>